<svg width="181" height="67" viewBox="0 0 181 67" fill="none" xmlns="http://www.w3.org/2000/svg">
<path d="M75.2811 38.553C74.1498 38.0458 73.3327 37.2848 72.7041 36.3337C72.0756 35.3826 71.7613 34.3046 71.6985 33.0364H74.6526C74.7154 34.1144 75.2183 35.0021 75.9725 35.6996C76.7267 36.3971 77.8581 36.7142 79.1151 36.7142C80.2465 36.7142 81.1264 36.4605 81.8178 36.0166C82.5092 35.5094 82.8863 34.8753 82.8863 33.9875C82.8863 33.3534 82.6978 32.8462 82.3207 32.4657C81.9435 32.0853 81.4407 31.8316 80.8122 31.6414C80.1837 31.4512 79.2409 31.2609 78.0466 31.0073H77.9209C76.7896 30.8171 75.7839 30.5634 74.9668 30.183C74.1498 29.8025 73.4584 29.2952 72.8927 28.5977C72.3899 27.9002 72.1385 26.9491 72.1385 25.8077C72.1385 24.7297 72.3899 23.7786 72.9555 22.9543C73.5212 22.13 74.2755 21.4959 75.2811 20.9886C76.2868 20.5447 77.4181 20.2911 78.6752 20.2911C79.9951 20.2911 81.1893 20.5447 82.1949 21.052C83.2635 21.5593 84.0805 22.1934 84.6462 23.0811C85.2747 23.9688 85.589 24.9834 85.589 26.0613H82.6349C82.5092 25.1102 82.0692 24.3493 81.3779 23.7786C80.6865 23.2079 79.7437 22.8909 78.6752 22.8909C77.6067 22.8909 76.7267 23.1445 76.0982 23.5884C75.4697 24.0322 75.1554 24.7297 75.1554 25.5541C75.1554 26.1882 75.344 26.632 75.7211 27.0125C76.0982 27.3295 76.601 27.6466 77.2296 27.8368C77.8581 28.027 78.738 28.2173 79.9322 28.4709C81.1264 28.6611 82.1321 28.9782 83.012 29.2952C83.892 29.6123 84.5834 30.183 85.149 30.8805C85.7147 31.578 85.9661 32.5291 85.9661 33.6705C85.9661 34.7485 85.6519 35.6996 85.0862 36.5873C84.5205 37.4751 83.7034 38.1092 82.6349 38.6164C81.5664 39.1237 80.4351 39.3139 79.1151 39.3139C77.6695 39.3774 76.3496 39.1237 75.2811 38.553Z" fill="#E60000"/>
<path d="M98.851 26.2516C99.7938 26.8222 100.548 27.5832 101.114 28.6611C101.679 29.7391 101.931 30.9439 101.931 32.4023C101.931 33.7973 101.679 35.0021 101.114 36.0166C100.548 37.0946 99.7938 37.9189 98.851 38.4896C97.9082 39.0603 96.7769 39.3773 95.5826 39.3773C94.3884 39.3773 93.3828 39.1237 92.5657 38.6164C91.7486 38.1092 91.1829 37.4116 90.743 36.5873L91.1201 35.9532V44.5769H88.2917V25.6175H90.743L91.3086 28.9782L90.6801 28.3441C91.1829 27.5198 91.8115 26.8222 92.5657 26.2516C93.3828 25.7443 94.3256 25.4906 95.5198 25.4906C96.7768 25.4272 97.8454 25.7443 98.851 26.2516ZM93.0057 28.4075C92.3771 28.7879 91.9372 29.2952 91.6229 29.9927C91.3086 30.6902 91.1201 31.4511 91.1201 32.3389C91.1201 33.2266 91.3086 34.0509 91.6229 34.7484C91.9372 35.4459 92.44 35.9532 93.0057 36.3971C93.6342 36.7775 94.2627 36.9678 95.0798 36.9678C95.8341 36.9678 96.5254 36.7775 97.154 36.3971C97.7825 36.0166 98.2225 35.4459 98.5367 34.8119C98.851 34.1143 99.0396 33.3534 99.0396 32.4657C99.0396 31.578 98.851 30.817 98.5367 30.1195C98.2225 29.422 97.7825 28.9148 97.154 28.5343C96.5254 28.1538 95.8341 27.9636 95.0798 27.9636C94.2627 27.8368 93.5713 28.027 93.0057 28.4075Z" fill="#E60000"/>
<path d="M107.022 38.4896C105.953 37.9189 105.136 37.0946 104.571 36.0166C104.005 34.9387 103.691 33.7339 103.691 32.4023C103.691 31.0073 104.005 29.8025 104.571 28.7245C105.136 27.6466 105.953 26.8857 107.022 26.315C108.09 25.7443 109.285 25.4272 110.605 25.4272C111.987 25.4272 113.182 25.7443 114.187 26.315C115.256 26.8857 116.073 27.71 116.638 28.7245C117.204 29.8025 117.518 31.0073 117.518 32.4023C117.518 33.7973 117.204 35.0021 116.638 36.0801C116.073 37.158 115.256 37.9189 114.187 38.553C113.119 39.1237 111.924 39.4408 110.605 39.4408C109.222 39.3773 108.028 39.0603 107.022 38.4896ZM112.679 36.3337C113.307 35.9532 113.747 35.446 114.061 34.7485C114.376 34.0509 114.564 33.29 114.564 32.4023C114.564 31.5146 114.376 30.7537 114.061 30.0561C113.747 29.3586 113.307 28.8514 112.679 28.4709C112.05 28.0904 111.359 27.9002 110.605 27.9002C109.85 27.9002 109.096 28.0904 108.53 28.4709C107.902 28.8514 107.462 29.3586 107.148 30.0561C106.833 30.7537 106.645 31.5146 106.645 32.4023C106.645 33.29 106.833 34.0509 107.148 34.7485C107.462 35.446 107.965 35.9532 108.53 36.3337C109.159 36.7141 109.85 36.9044 110.605 36.9044C111.359 36.9044 112.113 36.7141 112.679 36.3337Z" fill="#E60000"/>
<path d="M122.295 25.6175L122.798 28.9782L122.232 28.3441C122.61 27.5198 123.175 26.8223 123.804 26.3784C124.432 25.8711 125.375 25.6809 126.569 25.6809H127.198V28.3441H125.941C124.747 28.3441 123.929 28.7246 123.364 29.4855C122.861 30.2464 122.547 31.2609 122.547 32.4657V39.314H119.718V25.6175H122.295Z" fill="#E60000"/>
<path d="M129.083 21.7495H131.912V25.5541H135.18V28.0271H131.912V35.1289C131.912 35.6996 132.037 36.0801 132.226 36.2703C132.415 36.5239 132.792 36.5874 133.295 36.5874H135.494V39.1237H132.729C131.472 39.1237 130.529 38.8067 129.963 38.236C129.398 37.6653 129.083 36.7142 129.083 35.446V21.7495Z" fill="#E60000"/>
<path d="M140.208 38.553C139.077 38.0458 138.26 37.2848 137.631 36.3337C137.003 35.3826 136.689 34.3046 136.626 33.0364H139.58C139.643 34.1144 140.145 35.0021 140.9 35.6996C141.654 36.3971 142.785 36.7142 144.042 36.7142C145.174 36.7142 146.054 36.4605 146.745 36.0166C147.436 35.5094 147.814 34.8753 147.814 33.9875C147.814 33.3534 147.625 32.8462 147.248 32.4657C146.871 32.0853 146.368 31.8316 145.739 31.6414C145.111 31.4512 144.168 31.2609 142.974 31.0073H142.848C141.717 30.8171 140.711 30.5634 139.894 30.183C139.077 29.8025 138.386 29.2952 137.82 28.5977C137.317 27.9002 137.066 26.9491 137.066 25.8077C137.066 24.7297 137.317 23.7786 137.883 22.9543C138.448 22.13 139.203 21.4959 140.208 20.9886C141.214 20.5447 142.345 20.2911 143.602 20.2911C144.922 20.2911 146.117 20.5447 147.122 21.052C148.191 21.5593 149.008 22.1934 149.573 23.0811C150.202 23.9688 150.516 24.9834 150.516 26.0613H147.562C147.436 25.1102 146.996 24.3493 146.305 23.7786C145.614 23.2079 144.671 22.8909 143.602 22.8909C142.534 22.8909 141.654 23.1445 141.025 23.5884C140.397 24.0322 140.083 24.7297 140.083 25.5541C140.083 26.1882 140.271 26.632 140.648 27.0125C141.025 27.3295 141.528 27.6466 142.157 27.8368C142.785 28.027 143.665 28.2173 144.859 28.4709C146.054 28.6611 147.059 28.9782 147.939 29.2952C148.819 29.6123 149.511 30.183 150.076 30.8805C150.642 31.578 150.893 32.5291 150.893 33.6705C150.893 34.7485 150.579 35.6996 150.013 36.5873C149.448 37.4751 148.631 38.1092 147.562 38.6164C146.494 39.1237 145.362 39.3139 144.042 39.3139C142.597 39.3774 141.34 39.1237 140.208 38.553Z" fill="#E60000"/>
<path d="M156.047 38.4896C154.979 37.9189 154.162 37.0946 153.596 36.0801C153.03 35.0021 152.716 33.7973 152.716 32.4023C152.716 31.0073 152.968 29.7391 153.533 28.7245C154.099 27.71 154.853 26.8857 155.859 26.315C156.864 25.7443 157.996 25.4272 159.316 25.4272C160.636 25.4272 161.767 25.6809 162.773 26.1882C163.778 26.6954 164.533 27.4564 165.098 28.4709C165.664 29.4855 165.978 30.6268 165.978 31.895C165.978 32.0853 165.978 32.2121 165.978 32.4023C165.978 32.5925 165.978 32.7828 165.915 32.973H155.733C155.733 33.0364 155.733 33.0364 155.733 33.0364V33.0998C155.796 33.8607 155.922 34.5582 156.236 35.1289C156.55 35.6996 156.99 36.1435 157.556 36.4605C158.121 36.7776 158.75 36.9678 159.504 36.9678C160.384 36.9678 161.138 36.7776 161.704 36.3337C162.333 35.8898 162.71 35.3191 162.898 34.5582H165.79C165.601 35.446 165.287 36.2703 164.721 36.9678C164.155 37.6653 163.464 38.236 162.647 38.6798C161.767 39.0603 160.824 39.3139 159.756 39.3139C158.31 39.3774 157.053 39.0603 156.047 38.4896ZM157.744 28.1539C157.242 28.4075 156.802 28.788 156.487 29.2952C156.173 29.8025 155.922 30.3098 155.859 30.9439H163.087C162.961 29.9293 162.584 29.105 161.956 28.5977C161.327 28.027 160.447 27.7734 159.441 27.7734C158.813 27.71 158.247 27.8368 157.744 28.1539Z" fill="#E60000"/>
<path d="M171.069 38.4896C170.001 37.9189 169.184 37.0946 168.618 36.0801C168.052 35.0021 167.738 33.7973 167.738 32.4023C167.738 31.0073 167.989 29.7391 168.555 28.7245C169.121 27.71 169.875 26.8857 170.881 26.315C171.886 25.7443 173.018 25.4272 174.338 25.4272C175.658 25.4272 176.789 25.6809 177.795 26.1882C178.8 26.6954 179.554 27.4564 180.12 28.4709C180.686 29.4855 181 30.6268 181 31.895C181 32.0853 181 32.2121 181 32.4023C181 32.5925 181 32.7828 180.937 32.973H170.755C170.755 33.0364 170.755 33.0364 170.755 33.0364V33.0998C170.818 33.8607 170.944 34.5582 171.258 35.1289C171.572 35.6996 172.012 36.1435 172.578 36.4605C173.143 36.7776 173.772 36.9678 174.526 36.9678C175.406 36.9678 176.16 36.7776 176.726 36.3337C177.355 35.8898 177.732 35.3191 177.92 34.5582H180.811C180.623 35.446 180.309 36.2703 179.743 36.9678C179.177 37.6653 178.486 38.236 177.669 38.6798C176.789 39.0603 175.846 39.3139 174.778 39.3139C173.332 39.3774 172.138 39.0603 171.069 38.4896ZM172.766 28.1539C172.263 28.4075 171.823 28.788 171.509 29.2952C171.195 29.8025 170.944 30.3098 170.881 30.9439H178.109C177.983 29.9293 177.606 29.105 176.977 28.5977C176.349 28.027 175.469 27.7734 174.463 27.7734C173.835 27.71 173.269 27.8368 172.766 28.1539Z" fill="#E60000"/>
<g filter="url(#filter0_d_48_1)">
<path d="M32.5982 58.7027C48.3925 58.7027 61.1963 45.7855 61.1963 29.8514C61.1963 13.9172 48.3925 1 32.5982 1C16.8038 1 4 13.9172 4 29.8514C4 45.7855 16.8038 58.7027 32.5982 58.7027Z" fill="#FF0101"/>
<path d="M44.9174 17.423C47.5556 17.423 49.6942 15.2654 49.6942 12.6039C49.6942 9.94239 47.5556 7.78479 44.9174 7.78479C42.2792 7.78479 40.1406 9.94239 40.1406 12.6039C40.1406 15.2654 42.2792 17.423 44.9174 17.423Z" fill="#020203"/>
<mask id="mask0_48_1" style="mask-type:alpha" maskUnits="userSpaceOnUse" x="4" y="1" width="58" height="58">
<path d="M32.5982 58.7027C48.3925 58.7027 61.1963 45.7855 61.1963 29.8514C61.1963 13.9172 48.3925 1 32.5982 1C16.8038 1 4 13.9172 4 29.8514C4 45.7855 16.8038 58.7027 32.5982 58.7027Z" fill="#FF0101"/>
</mask>
<g mask="url(#mask0_48_1)">
<path d="M43.5346 30.422C43.8489 30.9293 44.4146 31.2463 45.0431 31.2463C45.3574 31.2463 45.6716 31.1829 45.9859 30.9927L54.5968 25.7931C55.4767 25.2858 55.7281 24.1445 55.2253 23.3201C54.7225 22.4324 53.5911 22.1788 52.774 22.686L45.6088 26.9979L42.1519 20.2131C41.2091 19.2619 40.1406 18.3108 39.0721 17.4865L28.827 12.2869C28.1356 11.9698 27.3814 12.0332 26.8157 12.5405L18.2677 20.3399C17.5134 21.0374 17.4506 22.1788 18.142 22.8763C18.8334 23.6372 19.9647 23.7006 20.6561 23.0031L28.387 16.028L33.7295 18.7546L24.553 33.0852L3.6229 58.0686C2.80581 59.0197 2.86867 60.5415 3.87432 61.3659C4.81711 62.1902 6.32559 62.1268 7.14268 61.1122L27.4442 37.4605L36.1808 39.4896L30.2098 48.9376C29.5812 50.079 29.9584 51.474 31.0897 52.1081C32.0954 52.6788 33.4153 52.4251 34.1067 51.4106L41.7747 39.1725C42.2147 38.5384 42.2776 37.7141 42.0261 37.0166C41.7119 36.3191 41.1462 35.8118 40.392 35.685L33.6667 34.0998L39.7634 24.4615L43.5346 30.422Z" fill="#020203"/>
</g>
</g>
<defs>
<filter id="filter0_d_48_1" x="0" y="1" width="65.1964" height="65.7027" filterUnits="userSpaceOnUse" color-interpolation-filters="sRGB">
<feFlood flood-opacity="0" result="BackgroundImageFix"/>
<feColorMatrix in="SourceAlpha" type="matrix" values="0 0 0 0 0 0 0 0 0 0 0 0 0 0 0 0 0 0 127 0" result="hardAlpha"/>
<feOffset dy="4"/>
<feGaussianBlur stdDeviation="2"/>
<feComposite in2="hardAlpha" operator="out"/>
<feColorMatrix type="matrix" values="0 0 0 0 0 0 0 0 0 0 0 0 0 0 0 0 0 0 0.25 0"/>
<feBlend mode="normal" in2="BackgroundImageFix" result="effect1_dropShadow_48_1"/>
<feBlend mode="normal" in="SourceGraphic" in2="effect1_dropShadow_48_1" result="shape"/>
</filter>
</defs>
</svg>
